<svg width="20" height="21" viewBox="0 0 20 21" fill="none" xmlns="http://www.w3.org/2000/svg">
<path d="M1 1.5H4.38321L5.58853 13.4769C5.63862 13.8071 5.80643 14.108 6.06102 14.3243C6.31561 14.5406 6.63984 14.6576 6.97395 14.6538H15.7021C16.0042 14.6696 16.3032 14.5861 16.5534 14.4161C16.8035 14.2461 16.9912 13.9989 17.0875 13.7123L18.9302 8.17385C18.999 7.96564 19.0173 7.74406 18.9836 7.52739C18.9498 7.31072 18.865 7.10517 18.7362 6.92769C18.6021 6.73894 18.4227 6.58681 18.2146 6.48522C18.0065 6.38362 17.7761 6.33581 17.5447 6.34615H4.8681" stroke="#5C5F6A" stroke-width="1.42857" stroke-linecap="round" stroke-linejoin="round"/>
<path d="M15.4666 19.5C15.2829 19.5 15.1067 19.4271 14.9768 19.2972C14.8469 19.1674 14.7739 18.9913 14.7739 18.8077C14.7739 18.6241 14.8469 18.448 14.9768 18.3182C15.1067 18.1883 15.2829 18.1154 15.4666 18.1154C15.6503 18.1154 15.8265 18.1883 15.9564 18.3182C16.0863 18.448 16.1593 18.6241 16.1593 18.8077C16.1593 18.9913 16.0863 19.1674 15.9564 19.2972C15.8265 19.4271 15.6503 19.5 15.4666 19.5Z" fill="#5C5F6A" stroke="#5C5F6A" stroke-width="1.42857" stroke-linecap="round" stroke-linejoin="round"/>
<path d="M6.46133 19.5C6.27761 19.5 6.10141 19.4271 5.97151 19.2972C5.8416 19.1674 5.76862 18.9913 5.76862 18.8077C5.76862 18.6241 5.8416 18.448 5.97151 18.3182C6.10141 18.1883 6.27761 18.1154 6.46133 18.1154C6.64505 18.1154 6.82124 18.1883 6.95115 18.3182C7.08106 18.448 7.15404 18.6241 7.15404 18.8077C7.15404 18.9913 7.08106 19.1674 6.95115 19.2972C6.82124 19.4271 6.64505 19.5 6.46133 19.5Z" fill="#5C5F6A" stroke="#5C5F6A" stroke-width="1.42857" stroke-linecap="round" stroke-linejoin="round"/>
<path d="M9.56192 9.11539V11.8846" stroke="#5C5F6A" stroke-width="1.42857" stroke-linecap="round" stroke-linejoin="round"/>
<path d="M13.7182 9.11539V11.8846" stroke="#5C5F6A" stroke-width="1.42857" stroke-linecap="round" stroke-linejoin="round"/>
</svg>
